<svg width="25" height="25" viewBox="0 0 25 25" fill="none" xmlns="http://www.w3.org/2000/svg">
<path fill-rule="evenodd" clip-rule="evenodd" d="M1.32642 12.9489C1.32642 7.01179 6.13936 2.19885 12.0764 2.19885C18.0135 2.19885 22.8264 7.01179 22.8264 12.9489C22.8264 18.8859 18.0135 23.6989 12.0764 23.6989C6.13936 23.6989 1.32642 18.8859 1.32642 12.9489ZM12.8264 8.94885C12.8264 8.53464 12.4906 8.19885 12.0764 8.19885C11.6622 8.19885 11.3264 8.53464 11.3264 8.94885V12.9489C11.3264 13.1996 11.4517 13.4338 11.6604 13.5729L14.6604 15.5729C15.005 15.8027 15.4707 15.7095 15.7005 15.3649C15.9302 15.0202 15.8371 14.5546 15.4924 14.3248L12.8264 12.5475V8.94885Z" fill="#263682"/>
</svg>
